<svg width="46" height="46" viewBox="0 0 46 46" fill="none" xmlns="http://www.w3.org/2000/svg">
<g clip-path="url(#clip0_195_973)">
<path d="M39.8816 19.4292C39.8816 32.556 23.0043 43.8075 23.0043 43.8075C23.0043 43.8075 6.12695 32.556 6.12695 19.4292C6.12695 14.953 7.90509 10.6602 11.0702 7.49513C14.2353 4.33002 18.5281 2.55188 23.0043 2.55188C27.4804 2.55188 31.7732 4.33002 34.9383 7.49513C38.1034 10.6602 39.8816 14.953 39.8816 19.4292Z" stroke="#FF7700" stroke-width="3.75051" stroke-linecap="round" stroke-linejoin="round"/>
<path d="M23.0008 25.055C26.1078 25.055 28.6265 22.5363 28.6265 19.4292C28.6265 16.3222 26.1078 13.8035 23.0008 13.8035C19.8937 13.8035 17.375 16.3222 17.375 19.4292C17.375 22.5363 19.8937 25.055 23.0008 25.055Z" stroke="#FF7700" stroke-width="3.75051" stroke-linecap="round" stroke-linejoin="round"/>
</g>
<defs>
<clipPath id="clip0_195_973">
<rect width="45.0061" height="45.0061" fill="white" transform="translate(0.501953 0.676636)"/>
</clipPath>
</defs>
</svg>
