<svg xmlns="http://www.w3.org/2000/svg" width="29" height="29" viewBox="0 0 29 29" fill="none">
  <g clip-path="url(#clip0_1418_167)">
    <path d="M28.1902 15.0513C28.1902 14.0996 28.113 13.1428 27.9484 12.2065H14.7432V17.5977H22.3052C21.9914 19.3364 20.9831 20.8746 19.5067 21.852V25.35H24.0182C26.6675 22.9117 28.1902 19.3107 28.1902 15.0513Z" fill="#4285F4"/>
    <path d="M14.7432 28.7299C18.519 28.7299 21.7033 27.4901 24.0233 25.3501L19.5119 21.8521C18.2567 22.706 16.6362 23.1896 14.7483 23.1896C11.0959 23.1896 7.99909 20.7255 6.88794 17.4126H2.23242V21.0187C4.60905 25.7462 9.44977 28.7299 14.7432 28.7299Z" fill="#34A853"/>
    <path d="M6.88279 17.4127C6.29635 15.6739 6.29635 13.7911 6.88279 12.0524V8.44629H2.23242C0.246747 12.4022 0.246747 17.0629 2.23242 21.0188L6.88279 17.4127Z" fill="#FBBC04"/>
    <path d="M14.7432 6.27028C16.7391 6.23941 18.6682 6.99047 20.1137 8.36912L24.1108 4.37206C21.5798 1.99543 18.2207 0.688794 14.7432 0.729947C9.44976 0.729947 4.60905 3.7136 2.23242 8.44628L6.8828 12.0524C7.9888 8.73436 11.0908 6.27028 14.7432 6.27028Z" fill="#EA4335"/>
  </g>
  <defs>
    <clipPath id="clip0_1418_167">
      <rect width="28" height="28" fill="white" transform="translate(0.462891 0.729004)"/>
    </clipPath>
  </defs>
</svg>